<?xml version="1.0" encoding="UTF-8"?>
<svg xmlns="http://www.w3.org/2000/svg" width="4095.48791" height="476.82402" version="1.1" viewBox="0 0 4095.48791 476.82402">
  <!-- Generator: Adobe Illustrator 28.6.0, SVG Export Plug-In . SVG Version: 1.2.0 Build 709)  -->
  <g>
    <g id="Layer_1">
      <g>
        <g>
          <polygon points="555.93578 260.29805 327.40354 31.76581 371.17584 445.05822 555.93578 260.29805"/>
          <polygon points="312.18684 31.76603 83.6546 260.29805 268.41476 445.05822 312.18684 31.76603"/>
        </g>
        <rect x="754.44493" y="108.57036" width="50.09107" height="256.02104"/>
        <rect x="2807.17401" y="108.57036" width="50.09107" height="256.02104"/>
        <polygon points="1387.69513 108.57041 1150.84461 108.57041 1150.84461 154.64181 1244.22434 154.64181 1244.22434 364.59142 1294.3154 364.59142 1294.3154 154.64181 1387.69513 154.64181 1387.69513 108.57041"/>
        <polygon points="2761.87566 108.57041 2525.02514 108.57041 2525.02514 154.64181 2618.40487 154.64181 2618.40487 364.59142 2668.49593 364.59142 2668.49593 154.64181 2761.87566 154.64181 2761.87566 108.57041"/>
        <polygon points="3872.30479 318.52002 3872.30479 108.57041 3822.21417 108.57041 3822.21417 364.59142 4011.83331 364.59142 4011.83331 318.52002 3872.30479 318.52002"/>
        <polygon points="1483.23914 318.52002 1483.23914 257.06561 1603.13305 257.06561 1603.13305 210.9942 1483.23914 210.9942 1483.23914 154.64181 1633.82145 154.64181 1633.82145 108.57041 1433.14807 108.57041 1433.14807 364.59142 1637.8411 364.59142 1637.8411 318.52002 1483.23914 318.52002"/>
        <polygon points="1057.4651 108.57041 1057.4651 243.20358 923.03859 108.57041 869.46894 108.57041 869.46894 364.59142 919.56 364.59142 919.56 174.92416 1057.4651 313.18605 1057.4651 364.59142 1107.55616 364.59142 1107.55616 108.57041 1057.4651 108.57041"/>
        <polygon points="2170.05886 108.57041 2170.05886 243.20358 2035.63235 108.57041 1982.0627 108.57041 1982.0627 364.59142 2032.15376 364.59142 2032.15376 174.92416 2170.05886 313.18605 2170.05886 364.59142 2220.14992 364.59142 2220.14992 108.57041 2170.05886 108.57041"/>
        <polygon points="3408.8853 108.57041 3408.8853 243.20358 3274.45879 108.57041 3220.88914 108.57041 3220.88914 364.59142 3270.9802 364.59142 3270.9802 174.92416 3408.8853 313.18605 3408.8853 364.59142 3458.97636 364.59142 3458.97636 108.57041 3408.8853 108.57041"/>
        <path d="M3039.23157,102.6182c-73.68657,0-133.42154,59.73474-133.42154,133.42154s59.73496,133.42154,133.42154,133.42154,133.42154-59.73474,133.42154-133.42154-59.73496-133.42154-133.42154-133.42154ZM3039.23157,320.14323c-46.44904,0-84.10349-37.65445-84.10349-84.10349s37.65445-84.10349,84.10349-84.10349,84.10349,37.65445,84.10349,84.10349-37.654,84.10349-84.10349,84.10349Z"/>
        <path d="M2425.22987,108.57041h-49.16371l-106.28889,203.37894v52.64207h50.09084v-32.86288l14.26472-29.44194h133.03037l14.26472,29.44194v32.86288h50.09062v-52.64207l-106.28867-203.37894ZM2355.70554,257.76124l44.94248-92.76127,44.94248,92.76127h-89.88495Z"/>
        <path d="M3665.17723,108.57041h-49.16371l-106.28889,203.37894v52.64207h50.09084v-32.86288l14.26472-29.44194h133.03037l14.26472,29.44194v32.86288h50.09062v-52.64207l-106.28867-203.37894ZM3595.6529,257.76124l44.94248-92.76127,44.94248,92.76127h-89.88495Z"/>
        <path d="M1875.39457,264.13299c29.54772-11.99733,50.39309-40.96739,50.39309-74.82171v-.00022c0-44.59189-36.14899-80.74066-80.74088-80.74066h-151.85804v256.02102h50.09106v-94.53926h76.60391l50.4789,94.53926h58.67167l-53.63973-100.45843ZM1839.17174,223.98076h-95.89193v-69.33895h95.89193c19.14743,0,34.66947,15.52204,34.66947,34.66947s-15.52204,34.66947-34.66947,34.66947Z"/>
      </g>
    </g>
  </g>
</svg>